<?xml version="1.0" encoding="iso-8859-1"?>
<!-- Generator: Adobe Illustrator 15.0.0, SVG Export Plug-In . SVG Version: 6.00 Build 0)  -->
<!DOCTYPE svg PUBLIC "-//W3C//DTD SVG 1.1//EN" "http://www.w3.org/Graphics/SVG/1.1/DTD/svg11.dtd">
<svg version="1.1" id="Layer_1" xmlns="http://www.w3.org/2000/svg" xmlns:xlink="http://www.w3.org/1999/xlink" x="0px" y="0px"
	 width="186.046px" height="38.229px" viewBox="0 0 186.046 38.229" style="enable-background:new 0 0 186.046 38.229;"
	 xml:space="preserve">
<g>
	<defs>
		<rect id="SVGID_1_" y="0" width="186.046" height="38.229"/>
	</defs>
	<clipPath id="SVGID_2_">
		<use xlink:href="#SVGID_1_"  style="overflow:visible;"/>
	</clipPath>
	<path style="clip-path:url(#SVGID_2_);fill:#ED1C24;" d="M46.792,33.349c-2.328-1.447-5.326-2.37-8.766-2.401
		c-8.856-0.073-18.5,4.232-25.031,4.286c-7.707,0.073-8.094-5.861-7.522-9.114c1.226-7.016,6.204-13.704,9.404-17.235
		c3.196-3.529,6.55-6.265,9.336-6.961c2.786-0.7,2.523,1.42,2.186,1.711c-0.357,0.005-1.029,0.078-1.411,0.344
		c-0.601,0.42-1.402,1.172-1.454,2.375C23.449,8.2,25.838,8.53,27.572,4.65c1.176-2.643-0.692-4.438-2.248-4.61
		c-2.126-0.234-5.387,0.508-9.271,3C9.285,7.39,0.23,17.048,0.002,27.76c-0.132,6.109,3.86,9.55,9.336,9.55
		c5.706,0,12.918-3.356,20.176-3.44c4.496-0.034,7.407,1.537,8.884,4.108c0,0,1.46-2.438,4.722-2.571
		c3.228-0.131,6.781,0.775,9.696,2.823C51.846,36.826,49.089,34.765,46.792,33.349"/>
	<path style="clip-path:url(#SVGID_2_);fill:#ED1C24;" d="M26.621,9.275c-3.717-0.939-9.88,5.38-12.483,10.527
		c-1.601,3.173-2.308,7.162,0.548,8.196c2.856,1.041,7.697-4.163,8.837-5.677c1.137-1.516,3-4.547,3-4.547s0.574-0.11,0.949-0.197
		c0.375-0.085,0.977-0.256,0.977-0.256s-0.703,1.25-1.331,2.534c-0.753,1.519-2.795,6.582,1.143,8.1
		c3.766,1.457,9.125-4.601,9.406-4.713c0,0-1.593,4.123,0.888,4.756c2.722,0.698,5.697-2.787,5.697-2.787s-0.625,2.61,1.494,2.86
		c3.796,0.438,10.504-9.266,10.504-9.266h-1.338c0,0-3.416,4.391-5.058,5.303c-1.64,0.906-1.057-0.708-0.608-1.428
		c0.571-0.92,7.828-13.043,7.828-13.043h-3.851l-0.446,0.71c0,0-0.792-1.214-2.12-1.127c-3.854,0.256-8.442,6.397-10.459,9.109
		c-2.017,2.707-6.372,7.881-8.662,6.959c-2.499-1.003-0.015-5.624,1.629-8.333c1.785-2.946,4.954-5.87,6.207-5.885
		c1.546-0.036,0.936,1.361,0.936,1.361s-1.148-0.143-1.984,0.912c-0.594,0.742-1.08,1.834-0.521,2.414
		c0.912,0.964,2.089-0.009,2.797-1.091c2.204-3.366,0.59-5.143-1.135-5.408c-3.688-0.548-7.079,4.182-9.657,5.945
		c-1.793,1.213-2.538,1.12-2.538,1.12S30.371,10.239,26.621,9.275 M43.292,20.177c1.116-2.039,2.631-4.006,4.609-6.469
		c1.973-2.464,2.954-2.666,3.547-2.635c0.502,0.018,0.578,0.542,0.578,0.542s-4.297,7.477-5.85,9.614
		c-0.509,0.691-0.946,1.283-1.324,1.727c-0.823,0.945-1.418,1.406-1.874,1.518c-0.24,0.058-0.54,0.047-0.733-0.074
		C41.542,23.975,42.076,22.4,43.292,20.177 M25.089,17.745c-0.052,0.124-1.281,2.152-2.312,3.467
		c-1.106,1.423-3.156,3.563-4.378,3.111c-1.91-0.705,0.128-4.833,1.502-6.848c1.372-2.024,1.577-2.278,1.61-2.334
		c0.043-0.054,0.078-0.101,0.113-0.038c0.036,0.062,0.47,0.961,1.418,1.562c0.945,0.61,1.916,0.889,1.985,0.907
		C25.091,17.604,25.141,17.626,25.089,17.745 M26.683,14.593c-0.355,0.932-0.672,1.518-0.734,1.65
		c-0.11,0.23-0.371,0.159-0.371,0.159c-0.301-0.018-2.638-0.549-2.624-2.42c0.011-1.828,2.587-3.614,3.591-2.85
		C27.493,11.84,27.042,13.666,26.683,14.593"/>
	<polygon style="clip-path:url(#SVGID_2_);fill:#ED1C24;" points="63.49,9.653 59.831,9.653 57.766,13.001 61.424,13.001 	"/>
	<path style="clip-path:url(#SVGID_2_);fill:#ED1C24;" d="M114.53,18.906h-3.847l-0.625,0.963c0,0-0.783-1.408-2.113-1.391
		c-2.278,0.038-4.56,1.781-7.204,4.797c-1.947,2.209-5.162,7.125-5.162,7.125s-2.469,3.811-3.715,3.512
		c-2.134-0.512,1.787-8.388,1.787-8.388s2.059-1.276,4.721-3.521c1.687-1.417,3.616-3.359,5.394-5.158
		c1.612-1.637,3.521-3.868,5.326-6.3c-0.459,0.073-0.933,0.12-1.421,0.146c-1.624,2.138-3.355,4.053-4.829,5.577
		c-2.189,2.268-4.211,4.115-5.676,5.303c-1.405,1.132-2.311,1.641-2.311,1.641s2.683-5.501,7.153-11.589
		c4.467-6.078,10.722-11.724,10.233-9.048c-0.14,0.776-0.621,1.873-1.34,3.183c0.502-0.101,1-0.237,1.478-0.39
		c1.072-2.219,1.442-4.047,0.638-4.578c-3.279-2.157-11.615,6.774-15.792,11.96c-4.184,5.196-7.964,13.118-7.964,13.118
		s-0.656,0.273-1.375,0.407c-0.458,0.093-0.655,0.07-0.731,0.044c-0.034-0.015-0.037-0.044-0.037-0.044s3.674-6.866-0.091-7.782
		c-3.629-0.883-9.922,5.84-12.158,10.515c-1.539,3.203-2.405,7.244,0.228,8.203c2.852,1.047,7.695-4.162,8.836-5.673
		c1.139-1.516,2.561-4.03,2.561-4.03s0.69-0.04,1.075-0.096c0.723-0.107,1.067-0.193,1.067-0.193s-0.471,1.234-0.984,2.796
		c-0.953,2.921-1.813,7.101,1.616,7.294c2.181,0.121,5.382-3.815,5.382-3.815s-0.862,3.5,1.969,3.815
		c2.088,0.231,5.127-2.993,5.127-2.993s-0.66,2.776,1.457,3.021c1.816,0.209,4.386-1.918,6.498-4.254
		c2.307-2.558,4.076-5.348,4.076-5.348h-1.344c0,0-2.967,4.498-5.048,5.705c-1.705,0.99-1.124-0.6-0.604-1.432
		C107.355,31.089,114.53,18.906,114.53,18.906 M85.214,27.384c-0.051,0.125-1.015,1.797-2.047,3.12
		c-1.109,1.412-3.14,3.552-4.361,3.1c-1.91-0.705,0.19-4.859,1.565-6.887c1.375-2.011,1.531-2.152,1.566-2.205
		c0.043-0.049,0.079-0.099,0.113-0.033c0.032,0.062,0.471,0.888,1.336,1.608c0.866,0.719,1.702,1.103,1.766,1.125
		C85.22,27.238,85.265,27.265,85.214,27.384 M86.074,25.884c-0.123,0.204-0.203,0.214-0.454,0.15
		c-0.442-0.123-2.267-0.963-2.255-2.837c0.011-1.828,2.584-3.61,3.591-2.848c0.944,0.708,0.493,2.534,0.136,3.456
		C86.74,24.742,86.153,25.755,86.074,25.884 M103.559,30.4c-0.517,0.696-0.938,1.328-1.317,1.768
		c-0.824,0.951-1.355,1.388-1.831,1.503c-0.243,0.058-0.54,0.042-0.739-0.073c-0.696-0.427-0.207-2.083,1.013-4.307
		c1.108-2.037,2.397-4.078,4.516-6.42c2.121-2.357,2.937-2.47,3.531-2.44c0.5,0.017,0.57,0.548,0.57,0.548s-0.037,0.124-0.117,0.257
		C108.48,22.447,104.95,28.487,103.559,30.4"/>
	<path style="clip-path:url(#SVGID_2_);fill:#ED1C24;" d="M117.483,3.645c-2.701,1.739-6.454,3.317-10.051,2.968
		c-0.905,0.943-1.888,2.033-2.858,3.224c6.241,1.235,11.703-2.636,14.608-5.933c1.817-2.051,2.714-3.895,2.714-3.895
		S120.168,1.917,117.483,3.645"/>
	<path style="clip-path:url(#SVGID_2_);fill:#ED1C24;" d="M72.979,18.462c-1.918,0.157-5.297,1.873-7.143,5.614
		c-1.844,3.746-1.856,6.062-1.856,6.062s0.977-1.064,2.468-2.183c1.489-1.117,2.6-1.515,2.6-1.515s0.275-1.37,0.965-2.812
		c0.67-1.4,1.732-2.859,3.047-3.185c2.669-0.674,1.388,4.19-0.565,7.365c-1.057,1.711-4.787,6.603-8,6.603
		c-3.219,0-3.833-3.099-3.156-5.996c0.673-2.892,1.61-6.574,6.3-13.262c4.688-6.689,9.765-10.658,12.701-12.317
		c3.014-1.712,4.248-0.962,4.248-0.962s-3.853,2.373-6.045,5.227c-2.095,2.735-3.345,5.798-2.375,7.298
		c0.932,1.437,4.192,1.464,7.784-3.724c3.551-5.12,2.654-8.167,2.654-8.167s0.429-0.141,0.717-0.177
		c1.728-0.229,3.11,0.225,5.257,1.327c2.251,1.148,4.405,2.997,7.362,4.512c0.882-0.975,1.879-2.007,2.915-3.021
		c-3.977-1.935-7.003-4.701-10.909-4.969c-3.405-0.228-6.08,1.012-6.08,1.012s-1.039-1.41-4.242-0.95
		c-3.193,0.46-13.053,4.581-21.441,18.015c-7.583,12.141-4.008,19.103,1.439,19.021c5.908-0.083,11.529-6.659,13.434-12.075
		C76.96,19.785,74.714,18.319,72.979,18.462 M84.582,7.175c-0.992,2.42-2.457,4.113-3.896,5.402
		c-1.842,1.663-2.856,1.604-3.291,1.274c-1.149-0.873,0.389-4.164,3.054-7.103c2.656-2.928,4.94-3.837,4.94-3.837
		C85.389,2.946,85.772,4.27,84.582,7.175"/>
	<path style="clip-path:url(#SVGID_2_);fill:#ED1C24;" d="M112.265,34.998c-0.264-0.269-0.588-0.401-0.964-0.401
		c-0.372,0-0.686,0.133-0.952,0.401c-0.268,0.263-0.397,0.583-0.397,0.95c0,0.375,0.13,0.701,0.393,0.964
		c0.262,0.269,0.585,0.395,0.957,0.395c0.376,0,0.7-0.126,0.964-0.395c0.263-0.267,0.392-0.589,0.392-0.964
		C112.656,35.581,112.527,35.261,112.265,34.998 M112.123,36.79c-0.22,0.213-0.5,0.336-0.822,0.336
		c-0.321,0-0.597-0.123-0.829-0.336c-0.221-0.236-0.334-0.513-0.334-0.842c0-0.321,0.113-0.596,0.334-0.824
		c0.241-0.225,0.508-0.343,0.829-0.343c0.322,0,0.597,0.118,0.822,0.343c0.231,0.229,0.34,0.503,0.34,0.824
		C112.463,36.277,112.354,36.554,112.123,36.79"/>
	<path style="clip-path:url(#SVGID_2_);fill:#ED1C24;" d="M111.888,36.587c0-0.033-0.005-0.066-0.005-0.106v-0.105
		c0-0.079-0.028-0.151-0.076-0.234c-0.048-0.073-0.143-0.122-0.26-0.144c0.092-0.013,0.167-0.038,0.212-0.076
		c0.101-0.057,0.147-0.152,0.147-0.292c0-0.183-0.072-0.311-0.229-0.368c-0.085-0.041-0.217-0.058-0.406-0.058h-0.511v1.487h0.252
		v-0.585h0.211c0.138,0,0.237,0.011,0.292,0.05c0.096,0.05,0.139,0.164,0.139,0.334v0.112l0.003,0.057c0,0.012,0,0.012,0.007,0.016
		v0.017h0.242l-0.003-0.021C111.897,36.658,111.897,36.637,111.888,36.587 M111.499,35.893c-0.058,0.013-0.134,0.028-0.248,0.028
		h-0.238v-0.539h0.226c0.146,0,0.253,0.018,0.319,0.054c0.057,0.036,0.097,0.113,0.097,0.219
		C111.654,35.772,111.596,35.844,111.499,35.893"/>
	<path style="clip-path:url(#SVGID_2_);fill:#ED1C24;" d="M126.079,37.25c-2.021,0-4.25-0.726-6.023-2.119l1.446-2.206
		c1.533,1.152,3.2,1.745,4.658,1.745c1.396,0,2.201-0.593,2.201-1.536v-0.052c0-1.096-1.502-1.479-3.169-1.981
		c-2.104-0.598-4.442-1.457-4.442-4.17v-0.056c0-2.693,2.232-4.331,5.058-4.331c1.774,0,3.711,0.615,5.221,1.609l-1.301,2.313
		c-1.366-0.833-2.813-1.34-4.003-1.34c-1.259,0-1.987,0.585-1.987,1.42v0.054c0,1.026,1.533,1.455,3.204,1.997
		c2.062,0.64,4.401,1.587,4.401,4.14v0.055C131.343,35.771,129.032,37.25,126.079,37.25"/>
	<path style="clip-path:url(#SVGID_2_);fill:#ED1C24;" d="M138.314,32.546c0,1.265,0.638,1.775,1.748,1.775
		c0.724,0,1.364-0.162,2.01-0.484V36.5c-0.807,0.462-1.719,0.723-2.927,0.723c-2.394,0-4.083-1.042-4.083-4.167v-7.475h-1.808V22.79
		h1.808v-3.901h3.252v3.901h3.812v2.791h-3.812V32.546z"/>
	<path style="clip-path:url(#SVGID_2_);fill:#ED1C24;" d="M151.757,37.304c-4.326,0-7.526-3.309-7.526-7.368
		c0-4.086,3.224-7.446,7.582-7.446c4.348,0,7.551,3.305,7.551,7.393C159.363,33.941,156.135,37.304,151.757,37.304 M151.757,25.344
		c-2.607,0-4.272,2.039-4.272,4.538c0,2.529,1.801,4.605,4.328,4.605c2.63,0,4.297-2.049,4.297-4.552
		C156.109,27.408,154.312,25.344,151.757,25.344"/>
	<path style="clip-path:url(#SVGID_2_);fill:#ED1C24;" d="M165.386,37.321h-3.257V23.123h3.257v3.197
		c0.885-2.124,2.524-3.581,5.024-3.473v3.446h-0.181c-2.859,0-4.844,1.857-4.844,5.617V37.321z"/>
	<path style="clip-path:url(#SVGID_2_);fill:#ED1C24;" d="M179.651,34.645c1.585,0,2.708-0.595,3.841-1.694l1.913,1.694
		c-1.354,1.614-3.202,2.659-5.811,2.659c-4.116,0-7.288-2.981-7.288-7.395c0-4.085,2.874-7.419,6.935-7.419
		c4.521,0,6.805,3.549,6.805,7.668c0,0.292-0.025,0.557-0.054,0.885h-10.431C175.931,33.354,177.547,34.645,179.651,34.645
		 M182.818,28.889c-0.217-2.099-1.448-3.737-3.606-3.737c-1.983,0-3.388,1.533-3.676,3.737H182.818z"/>
</g>
</svg>
